<?xml version="1.0" standalone="no"?>
<!DOCTYPE svg PUBLIC "-//W3C//DTD SVG 20010904//EN"
 "http://www.w3.org/TR/2001/REC-SVG-20010904/DTD/svg10.dtd">
<svg version="1.0" xmlns="http://www.w3.org/2000/svg"
 width="92.000000pt" height="106.000000pt" viewBox="0 0 92.000000 106.000000"
 preserveAspectRatio="xMidYMid meet">
<metadata>
Created by potrace 1.16, written by Peter Selinger 2001-2019
</metadata>
<g transform="translate(0.000000,106.000000) scale(0.100000,-0.100000)"
fill="#000000" stroke="none">
<path d="M223 932 l-222 -127 0 -275 0 -275 223 -127 c123 -71 229 -128 236
-128 7 0 113 57 236 128 l223 127 0 275 0 275 -223 128 c-123 70 -229 127
-237 127 -8 0 -114 -58 -236 -128z m447 -46 l195 -114 0 -242 0 -242 -195
-114 c-107 -62 -202 -113 -210 -113 -8 0 -103 51 -210 113 l-195 114 0 242 0
242 195 114 c107 62 202 113 210 113 8 0 103 -51 210 -113z"/>
<path d="M410 650 c0 -28 2 -30 40 -30 l40 0 0 -88 c0 -57 -5 -95 -13 -106
-18 -25 -69 -18 -82 12 -8 17 -18 22 -46 22 l-37 0 9 -37 c14 -65 82 -97 158
-74 69 20 76 35 79 192 l4 139 -76 0 -76 0 0 -30z"/>
</g>
</svg>
